<?xml version="1.0" encoding="UTF-8" standalone="no"?>
<!-- Created with Inkscape (http://www.inkscape.org/) -->

<svg
   xmlns:dc="http://purl.org/dc/elements/1.1/"
   xmlns:cc="http://creativecommons.org/ns#"
   xmlns:rdf="http://www.w3.org/1999/02/22-rdf-syntax-ns#"
   xmlns:svg="http://www.w3.org/2000/svg"
   xmlns="http://www.w3.org/2000/svg"
   xmlns:sodipodi="http://sodipodi.sourceforge.net/DTD/sodipodi-0.dtd"
   xmlns:inkscape="http://www.inkscape.org/namespaces/inkscape"
   id="svg2"
   version="1.1"
   inkscape:version="0.48.3.1 r9886"
   width="348.927"
   height="89.611847"
   xml:space="preserve"
   sodipodi:docname="avis_montecastrilli.svg"><metadata
     id="metadata8"><rdf:RDF><cc:Work
         rdf:about=""><dc:format>image/svg+xml</dc:format><dc:type
           rdf:resource="http://purl.org/dc/dcmitype/StillImage" /><dc:title /></cc:Work></rdf:RDF></metadata><defs
     id="defs6" /><sodipodi:namedview
     pagecolor="#ffffff"
     bordercolor="#666666"
     borderopacity="1"
     objecttolerance="10"
     gridtolerance="10"
     guidetolerance="10"
     inkscape:pageopacity="0"
     inkscape:pageshadow="2"
     inkscape:window-width="1094"
     inkscape:window-height="739"
     id="namedview4"
     showgrid="false"
     inkscape:zoom="0.70710678"
     inkscape:cx="257.52365"
     inkscape:cy="92.438934"
     inkscape:window-x="487"
     inkscape:window-y="272"
     inkscape:window-maximized="0"
     inkscape:current-layer="g12"
     showguides="true"
     inkscape:guide-bbox="true"
     fit-margin-top="0"
     fit-margin-left="0"
     fit-margin-right="0"
     fit-margin-bottom="0" /><g
     id="g10"
     inkscape:groupmode="layer"
     inkscape:label="ink_ext_XXXXXX"
     transform="matrix(1.25,0,0,-1.25,-7,171.945)"><g
       id="g12"
       transform="scale(0.1,0.1)"><path
   d="m 56,579.46929 3142.1409,0 0,796.09071 -3142.1409,0 0,-796.09071 z"
   style="fill:#ffffff;fill-opacity:1;fill-rule:evenodd;stroke:none"
   id="path14"
   inkscape:connector-curvature="0" /><path
   d="m 1800.62,1205.82 -17.7,-157.23 c -44.34,14.16 -102.48,29.43 -152.7,13.37 -3.08,-4.73 -8.85,-10.28 -4.32,-16.25 9.06,-9.67 23.67,-5.97 35.4,-8.85 32.1,0.62 65.03,-5.15 93.43,-17.9 60.71,-29.636 91.37,-88.702 87.46,-155.585 -2.26,-59.27 -40.13,-115.656 -93.43,-142.203 -77.58,-24.695 -160.52,-18.317 -243.05,-8.852 -19.54,4.942 -40.33,7.618 -59.26,14.821 l -19.14,167.515 c 67.68,-32.48 126.77,-39.308 196.94,-35.601 7.21,1.437 13.38,7.82 14.82,14.82 -2.88,24.77 -40.05,13.719 -62.26,13.543 -66.26,-1.23 -126.45,37.488 -155.47,99.023 -25.72,49.799 -18.11,120.799 16.26,165.869 71.82,91.17 194.89,73.47 299.43,66.68 21.2,-4.33 42.39,-8.85 63.59,-13.17"
   style="fill:#2271b3;fill-opacity:1;fill-rule:evenodd;stroke:none"
   id="path16"
   inkscape:connector-curvature="0" /><path
   d="m 396.078,1202.73 c -56.39,-58.85 -94.668,-125.53 -117.101,-198.59 -6.379,-29.222 -8.305,-63.378 7.41,-93.226 21.558,-40.945 67.914,-54.328 112.57,-48.976 27.781,5.964 59.066,25.515 68.117,54.945 10.906,33.543 12.965,70.793 -7.406,100.637 -25.93,32.92 -73.676,58.65 -59.27,106.8 5.145,27.79 17.903,53.92 31.075,78.41 l 102.277,0 c 33.957,-96.11 68.531,-192.01 100.844,-288.933 l 62.148,-177.805 c 3.289,-6.797 4.32,-14.613 5.965,-22.23 l -192.621,0 c -44.395,-3.469 -36.426,36.84 -51.859,57.828 l -32.516,90.348 -5.969,5.964 c -26.754,-43.007 -34.394,-96.73 -69.765,-133.355 -28.344,-29.348 -78.86,-34.813 -122.497,-30.828 -52.46,4.789 -120.918,38.707 -138.2417,122.613 -6.3828,30.895 -5.9688,63.18 4.5273,91.992 l 117.0934,253.336 14.817,31.07 170.402,0"
   style="fill:#2271b3;fill-opacity:1;fill-rule:evenodd;stroke:none"
   id="path18"
   inkscape:connector-curvature="0" /><path
   d="m 874.547,1005.79 c 6.996,-15.849 9.465,-33.548 20.785,-47.544 7.82,1.852 11.938,10.496 16.258,16.258 l 22.226,43.016 c 11.524,47.53 7.2,103.1 -19.136,142.2 l -32.727,43.01 235.637,0 c 50.83,-36.63 46.92,-102.48 41.57,-159.9 C 1125.82,915.852 1035.07,814.191 941.223,713.762 l -188.094,0 -63.797,188.304 -99.191,300.664 213.406,0 71,-196.94"
   style="fill:#2271b3;fill-opacity:1;fill-rule:evenodd;stroke:none"
   id="path20"
   inkscape:connector-curvature="0" /><path
   d="m 1363.51,1202.73 c 10.29,-8.03 10.7,-19.96 13.38,-31.07 l 0,-437.113 c 3.43,-8.899 12.14,-15.434 17.7,-22.227 l -192.63,0 c -13.16,7.618 -21,13.328 -25.1,32.52 l 0,434.22 c -2.37,8.99 -2.37,16 -10.29,23.67 l 196.94,0"
   style="fill:#2271b3;fill-opacity:1;fill-rule:evenodd;stroke:none"
   id="path22"
   inkscape:connector-curvature="0" /><path
   d="m 390.902,1067.44 c 17.907,-32.93 59.883,-52.07 65.235,-90.346 7.613,-34.574 -9.262,-66.676 -37.043,-84.379 -24.078,-12.344 -50.867,-10.832 -82.934,2.883 -33.433,14.304 -41.777,50.629 -38.691,82.937 13.379,70.795 50.629,131.505 97.961,188.305 -8.231,-30.46 -23.047,-68.95 -4.528,-99.4"
   style="fill:#af2b1e;fill-opacity:1;fill-rule:evenodd;stroke:none"
   id="path24"
   inkscape:connector-curvature="0" /><text
   xml:space="preserve"
   style="font-size:120px;font-style:italic;font-weight:normal;line-height:125%;letter-spacing:0px;word-spacing:0px;fill:#2271b3;fill-opacity:1;stroke:none;font-family:Times New Roman;-inkscape-font-specification:'Times New Roman, Italic'"
   x="102.22457"
   y="-1271.6737"
   id="text3769"
   sodipodi:linespacing="125%"
   transform="scale(1,-1)"><tspan
     sodipodi:role="line"
     id="tspan3771"
     x="102.22457"
     y="-1271.6737"
     style="font-size:120px;font-style:italic;font-variant:normal;font-weight:bold;font-stretch:normal;fill:#2271b3;fill-opacity:1;font-family:Georgia;-inkscape-font-specification:Georgia Bold Italic">Associazione Volontari Italiani del Sangue</tspan></text>


<text
   xml:space="preserve"
   style="font-size:320px;font-style:normal;font-weight:normal;line-height:100%;letter-spacing:0px;word-spacing:0px;fill:#2271b3;fill-opacity:1;stroke:none;font-family:Sans"
   x="1877.5551"
   y="-1025.9788"
   id="text3773"
   sodipodi:linespacing="100%"
   transform="scale(1,-1)"><tspan
     sodipodi:role="line"
     id="tspan3775"
     x="1877.5551"
     y="-1025.9788"
     style="font-size:192px;font-style:normal;font-variant:normal;font-weight:bold;font-stretch:normal;text-align:start;line-height:100%;writing-mode:lr-tb;text-anchor:start;fill:#2271b3;fill-opacity:1;font-family:Corbel;-inkscape-font-specification:Corbel Bold">Comunale</tspan><tspan
     sodipodi:role="line"
     x="1877.5551"
     y="-833.97882"
     style="font-size:192px;font-style:normal;font-variant:normal;font-weight:bold;font-stretch:normal;text-align:start;line-height:100%;writing-mode:lr-tb;text-anchor:start;fill:#2271b3;fill-opacity:1;font-family:Corbel;-inkscape-font-specification:Corbel Bold"
     id="tspan3777">Montecastrilli</tspan></text>


</g></g></svg>